<svg xmlns="http://www.w3.org/2000/svg" version="1.0" width="512.000000pt" height="512.000000pt" viewBox="0 0 512.000000 512.000000" preserveAspectRatio="xMidYMid meet">

<g transform="translate(0.000000,512.000000) scale(0.100000,-0.100000)" fill="#000000" stroke="none">
<path d="M1900 5010 c-795 -59 -1472 -110 -1505 -114 -77 -8 -175 -55 -215 -104 -17 -20 -40 -62 -53 -92 l-22 -55 -3 -1590 c-2 -1052 1 -1616 7 -1668 12 -87 42 -169 92 -253 40 -65 734 -972 786 -1025 50 -52 119 -87 201 -101 73 -12 248 -4 1237 58 277 17 1428 86 1900 114 377 22 447 31 520 64 100 45 148 118 166 253 6 52 9 676 7 1853 -3 1637 -4 1777 -20 1806 -34 62 -41 68 -763 575 -176 124 -347 244 -380 266 -142 96 -234 123 -405 122 -58 -1 -755 -50 -1550 -109z m1685 -195 c32 -9 80 -27 107 -40 67 -34 614 -431 622 -452 4 -9 3 -20 -1 -24 -13 -12 -3079 -192 -3140 -184 -31 4 -80 20 -114 38 -67 36 -495 370 -510 399 -14 26 4 54 43 66 18 6 98 15 178 21 137 10 248 18 760 56 514 38 903 67 1405 105 439 33 568 36 650 15z m1024 -880 c16 -8 37 -31 47 -52 18 -37 19 -90 19 -1603 l0 -1565 -23 -47 c-25 -51 -49 -71 -106 -86 -54 -15 -3211 -197 -3268 -188 -57 9 -105 40 -132 86 -21 35 -21 39 -21 1605 0 1559 0 1570 20 1605 37 63 65 70 357 87 145 8 853 50 1573 93 721 43 1354 78 1408 79 68 1 107 -3 126 -14z" fill="#000000"/>
<path d="M3805 3386 c-268 -17 -357 -26 -380 -38 -59 -31 -95 -88 -95 -148 0 -34 -1 -34 150 -50 58 -7 106 -13 108 -14 1 -2 1 -309 0 -683 l-3 -680 -500 764 c-275 421 -504 768 -510 772 -9 7 -99 2 -586 -33 -214 -15 -240 -23 -283 -79 -26 -35 -50 -116 -40 -141 7 -18 32 -23 157 -32 l97 -6 -2 -981 -3 -981 -100 -28 c-110 -30 -139 -52 -151 -113 -13 -72 -16 -71 233 -55 81 5 234 14 338 20 192 11 261 25 302 59 29 25 63 81 63 107 0 22 -36 34 -237 75 l-63 13 0 740 0 739 489 -769 c610 -959 606 -954 798 -954 83 0 157 18 269 66 l84 36 0 1098 0 1098 91 17 c105 21 136 41 149 100 11 46 3 106 -14 104 -6 -1 -168 -11 -361 -23z" fill="#000000"/>
</g>
</svg>